<svg width="1150" height="1150" viewBox="450 600 1150 1150" fill="none" xmlns="http://www.w3.org/2000/svg">
<g clip-path="url(#clip0_1_61)">
<path d="M542 1317C545.157 1309.11 551.818 1303.82 556.639 1297.17C559.799 1292.82 564.628 1290.4 567.931 1286.58C574.118 1279.44 579.136 1271.29 584.917 1263.77C586.54 1261.66 589.141 1260.31 591.264 1258.57C592.656 1257.43 594.187 1256.38 595.325 1255.02C604.594 1243.93 613.799 1232.78 622.973 1221.61C623.772 1220.63 624.704 1219.37 624.723 1218.22C624.791 1214.01 627.576 1212.27 630.769 1210.63C632.187 1209.9 633.63 1208.96 634.659 1207.76C646.536 1194.01 659.058 1180.71 669.751 1166.08C673.329 1161.18 676.61 1156.13 680.83 1151.63C689.471 1142.42 697.846 1132.94 706.115 1123.39C707.613 1121.66 707.751 1118.81 709.102 1116.88C711.265 1113.8 713.897 1111.04 716.368 1108.18C718.493 1105.72 720.677 1103.31 722.819 1100.87C723.359 1100.25 723.701 1099.33 724.362 1098.97C728.932 1096.51 732.757 1093.48 733.612 1087.91C733.636 1087.76 734.206 1087.53 734.401 1087.61C734.626 1087.7 734.717 1088.11 734.805 1088.72C734.744 1089.05 734.768 1089.37 734.768 1089.37L735.033 1089.04C739.841 1083.55 746.045 1078.74 749.098 1072.4C752.771 1064.78 758.157 1058.94 763.516 1052.92C769.669 1046.01 776.327 1039.54 782.764 1032.88C783.343 1032.28 783.939 1031.7 784.49 1031.07C789.377 1025.53 789.492 1025.43 784.847 1019.69C780.349 1014.14 776.459 1007.44 770.701 1003.72C763.284 998.934 757.293 992.669 753.662 985.658C747.73 974.204 738.609 965.737 730.776 956.083C726.839 951.232 721.462 947.566 717.368 942.819C713.997 938.911 711.795 934.019 708.646 929.892C704.615 924.61 700.705 918.983 695.652 914.835C692.955 912.621 689.739 910.927 687.345 908.119C679.042 898.379 669.168 889.586 662.811 878.724C658.837 871.932 653.94 866.179 649.5 859.935C648.746 858.875 647.589 858.103 646.31 857.098C646.003 856.999 646.031 857.025 646.031 857.025C641.424 851.216 636.936 845.307 632.184 839.619C621.64 827.002 611.024 814.442 600.279 801.997C598.529 799.97 595.758 798.854 593.839 796.937C592.216 795.316 591.081 793.183 589.849 791.203C589.094 789.989 588.851 788.335 587.877 787.398C584.536 784.183 580.96 781.212 577.506 778.112C576.772 777.454 575.789 776.738 575.576 775.885C573.323 766.87 566.469 760.79 560.22 755.193C554.836 750.372 549.636 745.512 545.284 739.868C540.115 733.166 535.491 726.032 530.904 718.908C530.357 718.058 531.079 715.685 531.975 714.739C535.027 711.518 538.421 708.619 541.946 705.261C542.207 704.924 542.19 704.638 542.19 704.638L541.992 704.991C538.176 703.379 542.055 702.321 542.516 701.899C549.579 695.433 556.807 689.149 563.967 682.791C568.031 679.182 572.044 675.514 576.654 671.355C586.026 680.934 595.112 690.177 604.116 699.5C604.884 700.296 605.104 701.621 605.229 702.784C604.879 702.867 604.671 702.902 604.671 702.902L605.036 702.973C607.45 706.284 609.729 709.705 612.309 712.882C616.815 718.432 621.426 723.902 626.16 729.258C627.917 731.246 630.023 732.987 632.182 734.548C639.437 739.791 642.62 748.116 647.891 754.845C655.155 764.116 662.756 773.148 670.61 781.926C678.113 790.313 685.055 799.155 692.74 807.963C693.067 808.272 693.427 808.226 693.427 808.226L693.122 807.896C694.677 807.192 696.112 807.865 696.938 809.463C698.775 813.018 700.432 816.71 702.673 819.998C704.813 823.138 707.458 825.976 710.131 828.701C715.251 833.921 720.765 838.768 725.717 844.137C732.088 851.046 739.721 857.503 743.736 865.667C747.506 873.337 753.356 878.755 758.147 885.247C759.775 887.452 762.616 888.753 764.871 890.508C765.786 891.22 767.242 891.939 767.388 892.83C768.635 900.427 774.073 906.001 779.403 909.569C787.714 915.131 792.283 923.46 798.866 930.195C803.225 934.655 807.124 939.572 811.124 944.371C811.646 944.998 811.444 946.181 811.756 947.041C812.191 948.243 812.469 949.933 813.375 950.47C825.494 957.654 832.257 969.547 840.25 980.413C843.363 984.645 847.314 988.255 850.829 992.197C858.653 1000.97 866.524 1009.7 874.201 1018.6C876.905 1021.74 876.255 1029.09 873.425 1032.3C864.029 1042.98 854.584 1053.62 845.258 1064.36C842.995 1066.97 841.391 1070.17 839.007 1072.64C833.439 1078.4 827.227 1083.58 821.958 1089.59C818.134 1093.95 815.621 1099.44 812.122 1104.12C808.389 1109.12 805.082 1115.39 799.986 1118.21C790.969 1123.2 786.704 1132.07 779.843 1138.71C778.231 1140.27 777.697 1142.94 776.333 1145.05C775.999 1145 776.006 1145 775.897 1144.87C775.515 1144.82 775.242 1144.92 774.981 1145.01C774.992 1145 775.011 1144.98 775.011 1144.98C774.223 1146.3 773.468 1147.65 772.637 1148.95C771.686 1150.44 770.668 1151.88 769.679 1153.34C769.549 1153.24 769.386 1153.17 769.301 1153.04C769.212 1152.91 769.2 1152.73 769.193 1152.26C769.232 1151.95 769.23 1151.65 769.23 1151.65L768.985 1151.98C758.022 1164.88 747.05 1177.77 736.103 1190.68C733.848 1193.34 731.485 1195.94 729.55 1198.83C728.317 1200.66 727.96 1203.07 726.874 1205.03C726.029 1206.56 724.802 1207.95 723.506 1209.15C719.693 1212.66 715.33 1215.68 711.957 1219.56C701.063 1232.1 690.544 1244.96 679.828 1257.66C670.561 1268.64 661.089 1279.44 651.964 1290.54C645.917 1297.89 640.406 1305.68 634.466 1313.12C632.871 1315.12 629.593 1316.23 628.877 1318.35C628.094 1320.68 628.774 1323.4 625.605 1324.36C625.523 1324.39 625.334 1324.19 625.255 1324.06C625.172 1323.93 625.163 1323.74 625.165 1323.26C625.209 1322.94 625.22 1322.66 625.22 1322.66L625 1323C617.289 1331.92 609.481 1340.75 601.945 1349.81C600.295 1351.8 600.03 1354.94 598.376 1356.92C596.773 1358.84 593.94 1359.69 592.146 1361.5C590.919 1362.74 590.962 1365.26 589.715 1366.45C586.313 1369.72 582.628 1372.72 578.774 1375.43C578.264 1375.79 575.98 1373.99 574.754 1372.91C560.732 1360.64 546.781 1348.28 532.745 1336.02C530.332 1333.91 529.689 1332.27 531.962 1329.4C534.114 1326.67 535.125 1323.07 537.103 1320.18C538.188 1318.59 540.233 1317.66 541.815 1316.73C541.785 1317.04 541.755 1317.32 541.755 1317.32L542 1317Z" fill="#34312D"/>
<path d="M1500.81 1309.26C1507.67 1308.88 1507.84 1309.02 1507.84 1315.92C1507.85 1334.25 1507.86 1352.58 1507.86 1370.91C1507.85 1377.83 1507.84 1377.87 1500.88 1377.87C1374.56 1377.89 1248.24 1377.9 1121.92 1377.91C1053.26 1377.91 984.599 1377.9 915.939 1377.9C914.318 1377.9 912.697 1377.9 910.485 1377.9C911.145 1376.03 911.562 1374.84 912.081 1373.32C912.184 1372.97 912.291 1372.73 912.291 1372.73L912.014 1373.03C911.444 1373.2 910.875 1373.38 910.305 1373.56C913.706 1371.1 912.785 1364.16 919.177 1364.99C919.675 1365.05 920.39 1363.96 920.899 1363.32C944.898 1333.31 968.887 1303.3 992.872 1273.28C1002.42 1261.33 1011.96 1249.36 1021.99 1237.59C1022.64 1244.09 1022.79 1250.4 1022.96 1257.22C1022.99 1272.59 1022.95 1287.47 1023.04 1302.34C1023.05 1304.24 1023.7 1306.13 1024.3 1307.99C1024.55 1307.97 1025.04 1307.92 1025.05 1307.91C1025.06 1307.91 1025.09 1307.91 1025.11 1308.15C1025.69 1308.7 1026.23 1309.01 1027.26 1309.27C1032.5 1309.27 1037.28 1309.33 1042.42 1309.54C1052.85 1309.58 1062.9 1309.48 1073.42 1309.29C1087.67 1309.25 1101.45 1309.29 1115.47 1309.47C1116.72 1309.51 1117.74 1309.43 1119.24 1309.28C1122.55 1309.26 1125.39 1309.31 1128.43 1309.47C1129.34 1309.51 1130.05 1309.43 1131.25 1309.29C1138.9 1309.26 1146.06 1309.29 1153.51 1309.47C1155.51 1309.52 1157.23 1309.43 1159.38 1309.26C1161.56 1309.25 1163.3 1309.31 1165.31 1309.51C1166.64 1309.53 1167.71 1309.43 1169.26 1309.27C1170.9 1309.16 1172.07 1309.07 1173.23 1309.07C1232.01 1309.06 1290.79 1309.05 1349.57 1309.06C1351.06 1309.06 1352.55 1309.21 1354.42 1309.46C1355.78 1309.75 1356.76 1309.98 1357.75 1309.98C1403.98 1310 1450.21 1310.01 1496.45 1309.97C1497.9 1309.97 1499.36 1309.51 1500.81 1309.26Z" fill="#35332E"/>
<path d="M1163.2 740.857C1163.16 719.534 1163.24 698.21 1163 676.89C1162.93 671.52 1166.18 672.096 1169.55 672.096C1234.52 672.1 1299.49 672.087 1364.46 672.087C1409.94 672.087 1455.42 672.102 1500.9 672.11C1502.85 672.11 1504.8 672.11 1506.89 672.11C1507.25 677.194 1507.83 681.64 1507.83 686.087C1507.87 787.041 1507.84 887.996 1507.33 989.432C1486.69 989.933 1466.53 989.799 1446.37 990.081C1441.27 990.153 1439.85 988.562 1439.88 983.541C1440.07 948.602 1439.99 913.661 1439.99 878.72C1439.99 835.232 1439.99 791.744 1439.97 748.256C1439.97 741.222 1439.72 740.986 1432.62 740.987C1394.13 740.989 1355.64 741.024 1317.15 741.004C1265.83 740.976 1214.52 740.908 1163.2 740.857Z" fill="#35332E"/>
<path d="M1027.92 1156.43C1026.97 1157.59 1026.13 1158.34 1024.42 1159.87C1023.5 1157.26 1022.26 1155.18 1022.09 1153.02C1020.28 1129.12 1016.53 1105.53 1009.89 1082.51C1007.57 1074.46 1003.88 1066.78 1000.51 1059.06C996.505 1049.89 987.914 1046.44 979.435 1043.03C963.526 1036.63 946.806 1033.92 929.884 1031.9C919.433 1030.65 909.069 1028.66 898.679 1026.92C897.731 1026.76 896.88 1026.02 895.984 1025.55C895.963 1024.97 895.941 1024.38 895.92 1023.79C901.413 1022.52 906.846 1020.78 912.41 1020.07C937.158 1016.92 961.78 1013.33 985.148 1003.97C996.515 999.415 1002.01 990.012 1006.06 979.257C1011.54 964.695 1015.03 949.675 1017 934.263C1018.59 921.82 1020.23 909.381 1022.12 896.981C1022.38 895.218 1024.16 893.685 1025.24 892.046C1026.19 893.455 1027.71 894.761 1027.99 896.291C1029.19 902.969 1030.28 909.687 1030.95 916.437C1032.54 932.636 1034.33 948.791 1039.02 964.451C1040.97 970.938 1042.88 977.466 1045.38 983.744C1050.43 996.384 1060.5 1003.1 1073.14 1007.06C1089.12 1012.08 1105.24 1015.81 1122.01 1017.16C1131.58 1017.93 1141.04 1020.27 1150.52 1022.06C1152.13 1022.37 1153.58 1023.5 1155.11 1024.25C1155.16 1024.85 1155.2 1025.45 1155.25 1026.05C1151.42 1027.04 1147.63 1028.33 1143.73 1028.95C1132.17 1030.77 1120.51 1032.02 1108.99 1034.07C1098.2 1035.99 1087.29 1037.88 1076.9 1041.23C1068.9 1043.82 1061.01 1047.79 1054.21 1052.72C1047.03 1057.92 1044.54 1066.88 1042.1 1075.11C1039.02 1085.49 1036.41 1096.04 1034.3 1106.66C1032.64 1114.95 1032.03 1123.45 1030.99 1131.86C1029.98 1139.91 1029.01 1147.97 1027.92 1156.43Z" fill="#F8A243"/>
<path d="M1163.19 741.152C1214.52 740.908 1265.83 740.976 1317.15 741.004C1355.64 741.024 1394.13 740.989 1432.62 740.987C1439.72 740.986 1439.97 741.222 1439.97 748.256C1439.99 791.744 1439.99 835.232 1439.99 878.72C1439.99 913.661 1440.07 948.602 1439.88 983.541C1439.85 988.562 1441.28 990.153 1446.37 990.081C1466.53 989.799 1486.69 989.933 1507.29 989.89C1508.02 990.109 1508.3 990.351 1508.79 990.733C1508.99 990.874 1509.02 990.781 1509.02 990.781C1508.58 991.134 1508.14 991.487 1506.94 991.892C1484.41 991.96 1462.64 991.975 1440.87 991.991C1440.03 991.41 1439.19 990.829 1438.07 989.596C1437.8 907.175 1437.8 825.406 1437.8 743.346C1435.79 743.21 1434.34 743.027 1432.89 743.025C1417.89 742.996 1402.89 742.991 1387.89 742.99C1313.24 742.989 1238.58 742.992 1163.92 742.993C1163.67 742.478 1163.43 741.962 1163.19 741.152Z" fill="#1E1B18"/>
<path d="M1508.99 1379.01C1507.1 1379.31 1505.2 1379.88 1503.3 1379.88C1362.53 1379.93 1221.75 1379.94 1080.98 1379.95C1025.84 1379.96 970.694 1379.95 915.552 1379.95C913.575 1379.95 911.598 1379.95 909.621 1379.95C909.622 1379.65 909.623 1379.36 909.625 1379.07C1109.12 1379.07 1308.61 1379.07 1508.56 1379.05C1509.02 1379.03 1508.99 1379.01 1508.99 1379.01Z" fill="#5B5355"/>
<path d="M1509.1 1307.89C1506.69 1307.92 1504.28 1307.96 1500.96 1307.93C1481.94 1307.86 1463.82 1307.83 1445.71 1307.85C1415.13 1307.89 1384.56 1307.96 1353.52 1308.02C1291.67 1308 1230.3 1307.96 1168.54 1307.88C1167.14 1307.86 1166.11 1307.9 1164.65 1307.94C1162.46 1307.96 1160.7 1307.97 1158.53 1307.93C1156.43 1307.9 1154.74 1307.93 1152.59 1307.96C1145.05 1307.95 1137.99 1307.94 1130.57 1307.88C1129.5 1307.86 1128.79 1307.9 1127.62 1307.94C1124.43 1307.96 1121.69 1307.97 1118.57 1307.93C1117.13 1307.91 1116.09 1307.94 1114.57 1307.99C1100.4 1307.99 1086.69 1307.99 1072.52 1307.93C1062.04 1307.92 1052.03 1307.96 1041.55 1308C1036.35 1307.98 1031.62 1307.96 1026.6 1307.9C1025.89 1307.87 1025.49 1307.89 1025.09 1307.91C1025.09 1307.91 1025.06 1307.91 1024.94 1307.73C1024.66 1307.32 1024.47 1307.1 1024.26 1306.46C1024.46 1289.71 1024.65 1273.42 1024.93 1256.66C1025.06 1249.52 1025.1 1242.86 1025.14 1236.19C1025.23 1235.41 1025.31 1234.63 1025.4 1233.86C1025.58 1233.86 1025.76 1233.87 1025.95 1233.88C1025.95 1257.94 1025.95 1282.01 1025.95 1306.7C1028.84 1306.84 1031.42 1307.06 1034 1307.06C1123.99 1307.06 1213.99 1307.02 1303.98 1307.02C1369.97 1307.01 1435.97 1307.03 1501.96 1307.05C1504.12 1307.05 1506.28 1307.24 1508.75 1307.63C1509.07 1307.92 1509.1 1307.89 1509.1 1307.89Z" fill="#5B5355"/>
<path d="M1164.14 743.371C1238.58 742.992 1313.24 742.989 1387.89 742.99C1402.89 742.991 1417.89 742.996 1432.89 743.025C1434.34 743.027 1435.79 743.21 1437.8 743.346C1437.8 825.406 1437.8 907.175 1437.82 989.402C1437.59 987.092 1437.12 984.325 1437.12 981.557C1437.07 904.759 1437.08 827.961 1437.08 751.162C1437.08 749.034 1437.08 746.906 1437.08 744.32C1434.76 744.212 1432.99 744.058 1431.21 744.057C1343.42 744.032 1255.63 744.021 1167.83 743.997C1166.68 743.996 1165.52 743.835 1164.14 743.371Z" fill="#5B5355"/>
<path d="M1162.05 670.96C1163.76 670.624 1165.48 669.996 1167.2 669.995C1279.16 669.947 1391.13 669.949 1503.09 669.958C1504.39 669.958 1505.7 670.097 1506.97 671.008C1392.3 671.008 1277.63 671.008 1162.49 671.007C1162.02 671.007 1162.05 670.96 1162.05 670.96Z" fill="#5B5355"/>
<path d="M1509.03 990.859C1509.03 885.918 1508.98 780.992 1508.94 676.065C1508.94 675.092 1509.03 674.118 1510.06 673.114C1510.06 674.578 1510.06 676.041 1510.06 677.505C1510.04 780.1 1510.01 882.695 1509.97 985.29C1509.97 986.939 1509.73 988.587 1509.31 990.509C1509.02 990.781 1508.99 990.874 1509.03 990.859Z" fill="#5B5355"/>
<path d="M1353.99 1308.01C1384.56 1307.96 1415.14 1307.89 1445.71 1307.85C1463.82 1307.83 1481.94 1307.86 1500.51 1307.93C1500.94 1308.2 1500.9 1308.41 1500.83 1308.94C1499.36 1309.51 1497.9 1309.97 1496.45 1309.97C1450.21 1310.01 1403.98 1310 1357.75 1309.98C1356.76 1309.98 1355.78 1309.75 1354.43 1309.14C1354.04 1308.44 1354.01 1308.23 1353.99 1308.01Z" fill="#34312D"/>
<path d="M1162.02 670.982C1162.02 694.261 1162.02 717.565 1162.02 740.869C1161.81 740.892 1161.6 740.915 1161.38 740.938C1161.24 740.287 1160.97 739.637 1160.97 738.986C1160.96 717.488 1160.95 695.989 1160.98 674.491C1160.99 673.515 1161.29 672.538 1161.75 671.261C1162.05 670.96 1162.02 671.007 1162.02 670.982Z" fill="#35332E"/>
<path d="M1509.05 1307.93C1509.36 1309.19 1509.97 1310.43 1509.97 1311.67C1510.01 1333.28 1509.98 1354.89 1509.94 1376.5C1509.94 1377.16 1509.75 1377.81 1509.32 1378.74C1508.99 1379.01 1509.02 1379.03 1509.04 1379.04C1509.05 1355.65 1509.05 1332.25 1509.07 1308.37C1509.1 1307.89 1509.07 1307.92 1509.05 1307.93Z" fill="#5B5355"/>
<path d="M1441.1 992.369C1462.64 991.975 1484.41 991.96 1506.66 991.967C1506.62 992.302 1506.09 992.887 1505.57 992.887C1484.16 992.873 1462.75 992.807 1441.1 992.369Z" fill="#5B5355"/>
<path d="M1024.81 1236.2C1025.1 1242.86 1025.06 1249.52 1024.61 1256.59C1023.79 1256.9 1023.36 1256.81 1022.94 1256.72C1022.79 1250.4 1022.64 1244.09 1022.28 1237.42C1022.88 1236.79 1023.68 1236.5 1024.81 1236.2Z" fill="#34312D"/>
<path d="M775.994 1144.99C775.846 1145.43 775.703 1145.86 775.56 1146.3C775.413 1146.02 775.265 1145.75 775.064 1145.22C775.011 1144.98 774.993 1145 775.24 1145.03C775.661 1145.04 775.833 1145.02 776.006 1145C776.006 1145 775.999 1145 775.994 1144.99Z" fill="#34312D"/>
<path d="M645.99 856.985C645.883 857.004 645.789 857.038 645.863 857.048C646.032 857.025 646.003 856.999 645.99 856.985Z" fill="#34312D"/>
<path d="M541.996 704.996C541.993 704.991 542.19 704.638 542.19 704.638C542.19 704.638 542.207 704.924 542.107 704.965C542.007 705.005 542 705 541.996 704.996Z" fill="black"/>
<path d="M768.994 1151.99C768.985 1151.98 769.23 1151.65 769.23 1151.65C769.23 1151.65 769.233 1151.95 769.129 1151.99C769.026 1152.02 769.003 1152 768.994 1151.99Z" fill="black"/>
<path d="M775.897 1144.87C775.833 1145.02 775.661 1145.04 775.229 1145.04C775.242 1144.92 775.515 1144.82 775.897 1144.87Z" fill="black"/>
<path d="M605.022 702.986C605.036 702.973 604.671 702.902 604.671 702.902C604.671 702.902 604.879 702.867 604.933 702.948C604.986 703.029 605.008 702.998 605.022 702.986Z" fill="black"/>
<path d="M735.013 1089.02C735.033 1089.04 734.769 1089.37 734.769 1089.37C734.769 1089.37 734.744 1089.05 734.847 1089.01C734.95 1088.96 734.993 1089 735.013 1089.02Z" fill="black"/>
<path d="M556.541 750.481C556.57 750.533 556.513 750.428 556.541 750.481Z" fill="black"/>
<path d="M541.892 1317.02C542 1317 541.755 1317.32 541.755 1317.32C541.755 1317.32 541.785 1317.04 541.892 1317.02Z" fill="black"/>
<path d="M625.105 1322.97C625 1323 625.22 1322.66 625.22 1322.66C625.22 1322.66 625.21 1322.94 625.105 1322.97Z" fill="black"/>
<path d="M693.075 807.94C693.122 807.896 693.427 808.226 693.427 808.226C693.427 808.226 693.067 808.272 693.002 808.174C692.937 808.076 693.028 807.984 693.075 807.94Z" fill="black"/>
<path d="M1353.52 1308.02C1354.01 1308.23 1354.04 1308.44 1354.06 1308.97C1352.55 1309.21 1351.06 1309.06 1349.57 1309.06C1290.79 1309.05 1232.01 1309.06 1173.23 1309.07C1172.07 1309.07 1170.9 1309.16 1169.28 1308.91C1168.86 1308.39 1168.89 1308.16 1168.92 1307.93C1230.3 1307.96 1291.67 1308 1353.52 1308.02Z" fill="black"/>
<path d="M1022.96 1257.22C1023.36 1256.81 1023.79 1256.9 1024.53 1257.06C1024.65 1273.42 1024.46 1289.71 1024.17 1306.73C1024.07 1307.64 1024.06 1307.83 1024.06 1308.02C1023.7 1306.13 1023.05 1304.24 1023.04 1302.34C1022.95 1287.47 1022.99 1272.59 1022.96 1257.22Z" fill="black"/>
<path d="M1042.02 1308C1052.03 1307.96 1062.04 1307.92 1072.48 1308.28C1072.93 1308.91 1072.94 1309.14 1072.95 1309.38C1062.9 1309.48 1052.85 1309.58 1042.44 1309.19C1042.06 1308.46 1042.04 1308.23 1042.02 1308Z" fill="#34312D"/>
<path d="M1073.42 1309.29C1072.94 1309.14 1072.93 1308.91 1072.95 1308.33C1086.69 1307.99 1100.4 1307.99 1114.64 1308.32C1115.2 1308.88 1115.22 1309.11 1115.24 1309.33C1101.45 1309.29 1087.67 1309.25 1073.42 1309.29Z" fill="black"/>
<path d="M1130.92 1307.93C1137.99 1307.94 1145.05 1307.95 1152.64 1308.3C1153.19 1308.87 1153.21 1309.09 1153.23 1309.32C1146.06 1309.29 1138.9 1309.26 1131.27 1308.93C1130.85 1308.4 1130.89 1308.17 1130.92 1307.93Z" fill="black"/>
<path d="M1041.55 1308C1042.04 1308.23 1042.06 1308.46 1042.07 1309.04C1037.27 1309.33 1032.5 1309.27 1027.27 1308.92C1026.84 1308.4 1026.87 1308.17 1026.9 1307.94C1031.62 1307.96 1036.35 1307.98 1041.55 1308Z" fill="black"/>
<path d="M1153.51 1309.47C1153.21 1309.09 1153.19 1308.87 1153.12 1308.3C1154.74 1307.93 1156.43 1307.9 1158.51 1308.27C1158.92 1308.89 1158.94 1309.12 1158.95 1309.34C1157.23 1309.43 1155.51 1309.52 1153.51 1309.47Z" fill="#34312D"/>
<path d="M1118.96 1307.98C1121.69 1307.97 1124.43 1307.96 1127.67 1308.29C1128.2 1308.88 1128.22 1309.11 1128.23 1309.35C1125.39 1309.31 1122.55 1309.26 1119.27 1308.94C1118.87 1308.43 1118.91 1308.21 1118.96 1307.98Z" fill="black"/>
<path d="M1118.57 1307.93C1118.91 1308.21 1118.87 1308.43 1118.8 1309C1117.74 1309.43 1116.72 1309.51 1115.47 1309.47C1115.22 1309.11 1115.2 1308.88 1115.11 1308.32C1116.09 1307.94 1117.13 1307.91 1118.57 1307.93Z" fill="#34312D"/>
<path d="M1168.54 1307.88C1168.89 1308.16 1168.86 1308.39 1168.8 1308.98C1167.71 1309.43 1166.64 1309.53 1165.34 1309.14C1165.11 1308.42 1165.1 1308.18 1165.09 1307.94C1166.11 1307.9 1167.14 1307.86 1168.54 1307.88Z" fill="#34312D"/>
<path d="M1128.43 1309.47C1128.22 1309.11 1128.2 1308.88 1128.13 1308.29C1128.79 1307.9 1129.5 1307.86 1130.57 1307.88C1130.89 1308.17 1130.85 1308.4 1130.79 1308.99C1130.05 1309.43 1129.34 1309.51 1128.43 1309.47Z" fill="#34312D"/>
<path d="M1164.65 1307.94C1165.1 1308.18 1165.11 1308.42 1165.08 1309.02C1163.3 1309.31 1161.56 1309.25 1159.38 1309.26C1158.94 1309.12 1158.92 1308.89 1158.93 1308.32C1160.7 1307.97 1162.46 1307.96 1164.65 1307.94Z" fill="black"/>
<path d="M1026.6 1307.9C1026.87 1308.17 1026.84 1308.4 1026.8 1308.97C1026.23 1309.01 1025.69 1308.7 1025.12 1308.15C1025.49 1307.89 1025.89 1307.87 1026.6 1307.9Z" fill="#34312D"/>
<path d="M1024.3 1307.99C1024.06 1307.83 1024.07 1307.64 1024.17 1307.19C1024.47 1307.1 1024.66 1307.32 1024.92 1307.74C1025.04 1307.92 1024.55 1307.97 1024.3 1307.99Z" fill="#34312D"/>
<path d="M912.002 1373.01C912.014 1373.03 912.291 1372.73 912.291 1372.73C912.291 1372.73 912.184 1372.97 912.073 1372.97C911.961 1372.97 911.99 1373 912.002 1373.01Z" fill="black"/>
</g>
<defs>
<clipPath id="clip0_1_61">
<rect width="2048" height="2048" fill="white"/>
</clipPath>
</defs>
</svg>
