<svg width="1150" height="1150" viewBox="450 600 1150 1150" fill="none" xmlns="http://www.w3.org/2000/svg">
<g clip-path="url(#clip0_1_2)">
<path d="M767.839 894.14C804.847 937.87 841.632 981.325 878.398 1024.76C778.644 1142.93 679.118 1260.84 579.383 1378.99C562.145 1363.73 544.862 1348.43 527.275 1332.86C614.103 1229.97 700.55 1127.53 787.305 1024.73C700.628 922.279 613.951 819.828 526.934 716.975C544.278 701.833 561.671 686.648 579.382 671.187C642.288 745.604 704.952 819.735 767.839 894.14Z" fill="#FDFDFC"/>
<path d="M1463 1308.12C1478.61 1308.12 1493.72 1308.12 1509 1308.12C1509 1331.82 1509 1355.09 1509 1378.7C1308.4 1378.7 1107.99 1378.7 906.673 1378.7C945.968 1329.47 985.019 1280.55 1024.8 1230.72C1024.8 1256.95 1024.8 1282.12 1024.8 1308.12C1171.05 1308.12 1316.78 1308.12 1463 1308.12Z" fill="#FDFDFD"/>
<path d="M1437.98 963C1437.98 889.231 1437.98 815.962 1437.98 742.225C1345.83 742.225 1254.11 742.225 1162.14 742.225C1162.14 718.362 1162.14 694.968 1162.14 671.303C1277.77 671.303 1393.15 671.303 1508.83 671.303C1508.83 777.981 1508.83 884.535 1508.83 991.402C1485.41 991.402 1462.01 991.402 1437.98 991.402C1437.98 982.025 1437.98 972.763 1437.98 963Z" fill="#FDFEFD"/>
<path d="M972.983 1009.44C996.344 1003.16 1007.23 986.239 1011.73 964.6C1016.44 942.034 1020 919.23 1024.04 896.527C1024.33 894.919 1024.47 893.286 1025.13 891.639C1027.08 903.971 1028.58 916.392 1031.08 928.612C1034.39 944.832 1038.02 961.017 1042.35 976.993C1046.78 993.36 1057.91 1003.98 1074.24 1008.11C1093.06 1012.88 1112.1 1016.81 1131.1 1020.83C1138.52 1022.4 1146.1 1023.22 1153.82 1025.53C1152.4 1025.81 1150.99 1026.11 1149.57 1026.37C1127.67 1030.37 1105.77 1034.43 1083.85 1038.34C1056.16 1043.28 1042.46 1061.6 1037.34 1087.56C1032.75 1110.8 1028.94 1134.19 1024.72 1157.88C1024.14 1153.98 1023.7 1150.19 1023.01 1146.46C1018.95 1124.8 1015.27 1103.06 1010.58 1081.53C1008.07 1070.02 1003.7 1058.92 994.152 1050.95C985.621 1043.83 975.322 1040.13 964.771 1037.98C943.116 1033.56 921.273 1030.06 899.507 1026.17C898.741 1026.04 897.975 1025.9 896.033 1025.56C922.359 1020.06 947.48 1014.81 972.983 1009.44Z" fill="#FBA33B"/>
</g>
<defs>
<clipPath id="clip0_1_2">
<rect width="2048" height="2048" fill="white"/>
</clipPath>
</defs>
</svg>
